<?xml version="1.0" standalone="no"?>
<!DOCTYPE svg PUBLIC "-//W3C//DTD SVG 20010904//EN"
 "http://www.w3.org/TR/2001/REC-SVG-20010904/DTD/svg10.dtd">
<svg version="1.0" xmlns="http://www.w3.org/2000/svg"
 width="225.000000pt" height="225.000000pt" viewBox="0 0 225.000000 225.000000"
 preserveAspectRatio="xMidYMid meet">
<metadata>
Created by potrace 1.10, written by Peter Selinger 2001-2011
</metadata>
<g transform="translate(0.000000,225.000000) scale(0.050000,-0.050000)"
fill="#000000" stroke="none">
<path d="M1896 4469 c-1776 -276 -2516 -2465 -1272 -3761 1237 -1288 3369
-724 3808 1007 391 1542 -953 3001 -2536 2754z m813 -449 c185 -50 407 -148
544 -242 129 -87 307 -238 307 -260 0 -10 -318 -18 -716 -18 -797 0 -840 -5
-1104 -133 -296 -144 -572 -488 -642 -797 l-24 -110 -317 0 -317 0 0 46 c0 83
81 360 149 506 370 801 1280 1233 2120 1008z m1222 -1050 c54 -122 129 -392
129 -464 l0 -46 -1281 0 -1282 0 14 45 c47 152 180 330 318 425 215 149 216
149 1187 149 l866 1 49 -110z m-2833 -1040 c93 -415 512 -821 938 -908 65 -14
381 -22 815 -22 394 0 709 -8 709 -18 0 -52 -343 -298 -548 -393 -910 -420
-2000 -16 -2423 899 -68 146 -149 423 -149 506 l0 46 317 0 317 0 24 -110z
m2962 68 c0 -70 -78 -353 -130 -470 l-48 -110 -897 6 -896 6 -135 67 c-200 98
-454 395 -454 531 0 7 576 12 1280 12 l1280 0 0 -42z"/>
</g>
</svg>
